HIERARCHY
ROOT Hips
{
  OFFSET 5.72205e-005 65.662 3.42586
  CHANNELS 6 Xposition Yposition Zposition Zrotation Xrotation Yrotation
  JOINT Chest
  {
    OFFSET 0 8.7983 -4.7612
    CHANNELS 3 Zrotation Xrotation Yrotation
    JOINT Chest2
    {
      OFFSET 0 8.0291 0.4195
      CHANNELS 3 Zrotation Xrotation Yrotation
      JOINT Chest3
      {
        OFFSET 0 9.9351 -2.2114
        CHANNELS 3 Zrotation Xrotation Yrotation
        JOINT Neck
        {
          OFFSET 0 22.3885 -0.4656
          CHANNELS 3 Zrotation Xrotation Yrotation
          JOINT Head
          {
            OFFSET -0.0001 12.643 3.4389
            CHANNELS 3 Zrotation Xrotation Yrotation
            End Site
            {
              OFFSET 0.0001 17.6655 0.5274
            }
          }
        }
        JOINT LeftCollar
        {
          OFFSET 2.2603 21.606 7.4023
          CHANNELS 3 Zrotation Xrotation Yrotation
          JOINT LeftShoulder
          {
            OFFSET 13.5163 -1.1332 -5.0146
            CHANNELS 3 Zrotation Xrotation Yrotation
            JOINT LeftElbow
            {
              OFFSET -0.0995 -28.05 -0.2431
              CHANNELS 3 Zrotation Xrotation Yrotation
              JOINT LeftWrist
              {
                OFFSET 0.0679 -23.3996 -0.1402
                CHANNELS 3 Zrotation Xrotation Yrotation
                JOINT LeftFinger1
                {
                  OFFSET 0.7932 -9.069 2.5189
                  CHANNELS 3 Zrotation Xrotation Yrotation
                  JOINT LeftFinger11
                  {
                    OFFSET -0.8272 -3.3923 0.5977
                    CHANNELS 3 Zrotation Xrotation Yrotation
                    JOINT LeftFinger12
                    {
                      OFFSET -0.5649 -2.3158 0.4082
                      CHANNELS 3 Zrotation Xrotation Yrotation
                      End Site
                      {
                        OFFSET -0.4919 -1.6479 0.2673
                      }
                    }
                  }
                }
                JOINT LeftFinger2
                {
                  OFFSET 0.9159 -9.2044 0.2193
                  CHANNELS 3 Zrotation Xrotation Yrotation
                  JOINT LeftFinger21
                  {
                    OFFSET 0.0117 -4.1944 -0.0248
                    CHANNELS 3 Zrotation Xrotation Yrotation
                    JOINT LeftFinger22
                    {
                      OFFSET 0.0071 -2.3249 -0.0142
                      CHANNELS 3 Zrotation Xrotation Yrotation
                      End Site
                      {
                        OFFSET -0.1475 -2.0882 0.0028
                      }
                    }
                  }
                }
                JOINT LeftFinger3
                {
                  OFFSET 0.6113 -8.7231 -2.0637
                  CHANNELS 3 Zrotation Xrotation Yrotation
                  JOINT LeftFinger31
                  {
                    OFFSET -0.1927 -3.8059 -0.2383
                    CHANNELS 3 Zrotation Xrotation Yrotation
                    JOINT LeftFinger32
                    {
                      OFFSET -0.1091 -2.1688 -0.1362
                      CHANNELS 3 Zrotation Xrotation Yrotation
                      End Site
                      {
                        OFFSET -0.2358 -1.9176 -0.0906
                      }
                    }
                  }
                }
                JOINT LeftFinger4
                {
                  OFFSET -0.6151 -8.0947 -3.5641
                  CHANNELS 3 Zrotation Xrotation Yrotation
                  JOINT LeftFinger41
                  {
                    OFFSET -0.4882 -2.341 -0.6462
                    CHANNELS 3 Zrotation Xrotation Yrotation
                    JOINT LeftFinger42
                    {
                      OFFSET -0.3575 -1.7167 -0.4742
                      CHANNELS 3 Zrotation Xrotation Yrotation
                      End Site
                      {
                        OFFSET -0.4187 -1.5237 -0.3496
                      }
                    }
                  }
                }
                JOINT LeftFinger0
                {
                  OFFSET -1.42 -1.8761 1.4223
                  CHANNELS 3 Zrotation Xrotation Yrotation
                  JOINT LeftFinger01
                  {
                    OFFSET -1.1471 -3.4929 2.6334
                    CHANNELS 3 Zrotation Xrotation Yrotation
                    JOINT LeftFinger02
                    {
                      OFFSET -0.823 -2.3 1.6571
                      CHANNELS 3 Zrotation Xrotation Yrotation
                      End Site
                      {
                        OFFSET -0.5822 -1.6914 1.1582
                      }
                    }
                  }
                }
              }
            }
          }
        }
        JOINT RightCollar
        {
          OFFSET -2.2603 21.606 7.4023
          CHANNELS 3 Zrotation Xrotation Yrotation
          JOINT RightShoulder
          {
            OFFSET -13.5187 -1.1334 -5.0155
            CHANNELS 3 Zrotation Xrotation Yrotation
            JOINT RightElbow
            {
              OFFSET 0.0994 -28.0499 -0.2431
              CHANNELS 3 Zrotation Xrotation Yrotation
              JOINT RightWrist
              {
                OFFSET -0.0679 -23.3996 -0.1402
                CHANNELS 3 Zrotation Xrotation Yrotation
                JOINT RightFinger1
                {
                  OFFSET -0.7932 -9.0691 2.5189
                  CHANNELS 3 Zrotation Xrotation Yrotation
                  JOINT RightFinger11
                  {
                    OFFSET 0.8272 -3.3923 0.5977
                    CHANNELS 3 Zrotation Xrotation Yrotation
                    JOINT RightFinger12
                    {
                      OFFSET 0.565 -2.3158 0.4082
                      CHANNELS 3 Zrotation Xrotation Yrotation
                      End Site
                      {
                        OFFSET 0.4919 -1.6479 0.2673
                      }
                    }
                  }
                }
                JOINT RightFinger2
                {
                  OFFSET -0.916 -9.2044 0.2193
                  CHANNELS 3 Zrotation Xrotation Yrotation
                  JOINT RightFinger21
                  {
                    OFFSET -0.0117 -4.1944 -0.0248
                    CHANNELS 3 Zrotation Xrotation Yrotation
                    JOINT RightFinger22
                    {
                      OFFSET -0.0071 -2.3249 -0.0142
                      CHANNELS 3 Zrotation Xrotation Yrotation
                      End Site
                      {
                        OFFSET 0.1475 -2.0882 0.0028
                      }
                    }
                  }
                }
                JOINT RightFinger3
                {
                  OFFSET -0.6113 -8.7231 -2.0637
                  CHANNELS 3 Zrotation Xrotation Yrotation
                  JOINT RightFinger31
                  {
                    OFFSET 0.1927 -3.8059 -0.2383
                    CHANNELS 3 Zrotation Xrotation Yrotation
                    JOINT RightFinger32
                    {
                      OFFSET 0.1091 -2.1688 -0.1362
                      CHANNELS 3 Zrotation Xrotation Yrotation
                      End Site
                      {
                        OFFSET 0.2358 -1.9176 -0.0906
                      }
                    }
                  }
                }
                JOINT RightFinger4
                {
                  OFFSET 0.6151 -8.0947 -3.564
                  CHANNELS 3 Zrotation Xrotation Yrotation
                  JOINT RightFinger41
                  {
                    OFFSET 0.4882 -2.341 -0.6462
                    CHANNELS 3 Zrotation Xrotation Yrotation
                    JOINT RightFinger42
                    {
                      OFFSET 0.3574 -1.7166 -0.4742
                      CHANNELS 3 Zrotation Xrotation Yrotation
                      End Site
                      {
                        OFFSET 0.4187 -1.5237 -0.3496
                      }
                    }
                  }
                }
                JOINT RightFinger0
                {
                  OFFSET 1.4199 -1.8761 1.4221
                  CHANNELS 3 Zrotation Xrotation Yrotation
                  JOINT RightFinger01
                  {
                    OFFSET 1.1472 -3.4929 2.6336
                    CHANNELS 3 Zrotation Xrotation Yrotation
                    JOINT RightFinger02
                    {
                      OFFSET 0.8229 -2.3 1.6571
                      CHANNELS 3 Zrotation Xrotation Yrotation
                      End Site
                      {
                        OFFSET 0.5822 -1.6914 1.1582
                      }
                    }
                  }
                }
              }
            }
          }
        }
      }
    }
  }
  JOINT RightHip
  {
    OFFSET -9.412 3.9771 -0.7758
    CHANNELS 3 Zrotation Xrotation Yrotation
    JOINT RightKnee
    {
      OFFSET -0.7531 -40.938 0
      CHANNELS 3 Zrotation Xrotation Yrotation
      JOINT RightAnkle
      {
        OFFSET 0 -40.1986 0
        CHANNELS 3 Zrotation Xrotation Yrotation
        JOINT RightToe
        {
          OFFSET 0 -4.4182 9.239
          CHANNELS 3 Zrotation Xrotation Yrotation
          End Site
          {
            OFFSET 0 0 6.1981
          }
        }
      }
    }
  }
  JOINT LeftHip
  {
    OFFSET 9.4119 3.9773 -0.7758
    CHANNELS 3 Zrotation Xrotation Yrotation
    JOINT LeftKnee
    {
      OFFSET 0.7532 -40.9383 0
      CHANNELS 3 Zrotation Xrotation Yrotation
      JOINT LeftAnkle
      {
        OFFSET 0 -40.1986 0
        CHANNELS 3 Zrotation Xrotation Yrotation
        JOINT LeftToe
        {
          OFFSET 0 -4.4182 9.239
          CHANNELS 3 Zrotation Xrotation Yrotation
          End Site
          {
            OFFSET 0 0 6.1981
          }
        }
      }
    }
  }
}
MOTION
Frames:	5
Frame Time:	0.0333333
40.1612 1.1739 14.0599 -5.70428e-008 -87.1758 -6.00758e-008 -0.0483649 5.51287 -0.117469 -0.085914 11.0259 -0.231859 -0.0859142 11.0259 -0.23186 -6.88417e-007 -15.7588 -8.9735e-007 -8.75718e-008 -14.9828 -3.37024e-007 11.5334 -0.865457 -5.25777 24.6045 30.2016 18.6681 -0.236202 -44.7269 -30.7428 -30.053 -20.0332 -19.1996 1.19271e-015 -4.77083e-015 8.94531e-016 9.93923e-016 -6.36111e-015 7.35503e-015 1.19271e-015 -4.77083e-015 1.04362e-015 1.19271e-015 -4.77083e-015 8.94531e-016 -0.012794 0.00230522 7.72828e-005 2.18663e-015 -1.59028e-015 -2.78299e-015 1.19271e-015 -4.77083e-015 8.94531e-016 -0.0160586 0.0029976 0.000853958 -1.39149e-015 -1.59028e-015 -3.47873e-016 1.19271e-015 -4.77083e-015 8.94531e-016 -0.0125708 0.00309799 0.0028159 -1.78906e-015 3.18055e-015 1.49585e-014 1.19271e-015 -4.77083e-015 8.94531e-016 9.93923e-016 -6.36111e-015 7.35503e-015 1.19271e-015 -4.77083e-015 1.04362e-015 -33.3207 25.637 -3.97236 -7.80279 35.5456 -18.392 28.1049 -72.4103 54.5208 30.1143 -24.8236 18.4978 1.8941e-007 3.15788e-006 5.4601e-006 -7.36549e-006 -9.95896e-006 9.42095e-007 4.37326e-015 3.18055e-015 -1.80894e-014 1.8941e-007 3.15788e-006 5.4601e-006 0.0129387 0.00230324 -8.11072e-005 -7.95139e-016 -1.59028e-015 1.15295e-014 1.8941e-007 3.15788e-006 5.4601e-006 0.0163334 0.0030305 -0.000879847 -7.95139e-016 1.59028e-015 1.78906e-015 1.8941e-007 3.15788e-006 5.4601e-006 0.0145875 0.00368605 -0.00326454 -1.59028e-015 -3.18055e-015 1.12313e-014 1.8941e-007 3.15788e-006 5.4601e-006 -7.36549e-006 -9.95896e-006 9.42095e-007 4.37326e-015 3.18055e-015 -1.80894e-014 -65.3007 -40.7162 -27.9434 172.904 65.9175 -175.078 -43.8606 23.3199 60.4077 -4.72114e-016 0 1.49089e-016 30.1598 -11.8771 -26.492 -6.98326 28.5257 0.535165 11.0714 -0.999962 28.8296 -4.41391e-032 1.59028e-015 1.59028e-015 
40.1625 1.1017 14.0317 4.72308e-007 -86.6079 4.51618e-007 -0.0482201 5.48065 -0.117555 -0.0856756 10.9614 -0.232057 -0.0856757 10.9614 -0.232058 -3.62219e-007 -15.6034 -4.58466e-007 5.71773e-008 -14.8555 -1.20863e-007 11.2742 -1.0963 -5.36372 24.8285 30.1975 18.5897 -0.150957 -44.3242 -30.6873 -29.7445 -20.4537 -19.134 -1.39149e-015 3.18055e-015 -1.98785e-016 -1.19271e-015 0 -6.80837e-015 -2.98177e-015 1.59028e-015 -7.95139e-016 -1.39149e-015 3.18055e-015 -1.98785e-016 -0.0127928 0.00231593 8.11926e-005 -1.59028e-015 0 4.37326e-015 -1.39149e-015 3.18055e-015 -1.98785e-016 -0.0160802 0.00298919 0.000852941 5.96354e-016 -1.59028e-015 1.04362e-015 -1.39149e-015 3.18055e-015 -1.98785e-016 -0.012519 0.00310778 0.0028129 -9.93923e-016 0 5.26779e-015 -1.39149e-015 3.18055e-015 -1.98785e-016 -1.19271e-015 0 -6.80837e-015 -2.98177e-015 1.59028e-015 -7.95139e-016 -32.7445 25.4977 -4.15713 -8.1455 35.4476 -18.2478 27.2758 -72.2331 53.7328 29.7363 -25.1327 18.4065 -2.59227e-006 -6.92843e-007 -5.09383e-006 6.44899e-006 -2.46624e-006 -2.1047e-006 -1.65792e-006 -3.99306e-007 -3.97104e-007 -2.59227e-006 -6.92843e-007 -5.09383e-006 0.0129534 0.00232632 -8.30715e-005 9.1918e-006 5.18105e-006 -8.15665e-006 -2.59227e-006 -6.92843e-007 -5.09383e-006 0.0163232 0.00303421 -0.000876951 1.76775e-007 -1.39938e-006 -5.84278e-006 -2.59227e-006 -6.92843e-007 -5.09383e-006 0.014569 0.00366838 -0.00326554 -3.67843e-006 2.18791e-006 1.35553e-006 -2.59227e-006 -6.92843e-007 -5.09383e-006 6.44899e-006 -2.46624e-006 -2.1047e-006 -1.65792e-006 -3.99306e-007 -3.97104e-007 -65.7528 -40.9662 -28.6469 172.904 65.9187 -175.076 -43.8603 23.3202 60.4082 5.09306e-007 -3.19174e-006 -1.55052e-007 30.1934 -12.285 -26.5077 -6.91197 28.3483 0.511897 10.9728 -0.843718 29.096 3.18055e-015 -1.59028e-015 3.18055e-015 
40.1635 1.04236 14.0082 -7.8101e-008 -86.1428 -8.69645e-008 -0.0481007 5.4542 -0.117624 -0.0854789 10.9085 -0.232215 -0.0854789 10.9085 -0.232216 -4.22467e-007 -15.4481 -5.34027e-007 2.45306e-007 -14.7282 1.24262e-007 11.0618 -1.28477 -5.45149 25.0116 30.1939 18.5256 -0.08173 -43.9947 -30.6425 -29.4903 -20.7977 -19.0777 1.78906e-015 1.59028e-015 9.24349e-015 -1.98785e-015 -1.59028e-015 9.49197e-015 9.93923e-016 3.18055e-015 -3.52843e-015 1.78906e-015 1.59028e-015 9.24349e-015 -0.0128398 0.00232688 8.35791e-005 -1.98785e-015 3.18055e-015 -1.14301e-015 1.78906e-015 1.59028e-015 9.24349e-015 -0.0160317 0.00299559 0.000854683 1.59028e-015 1.59028e-015 4.07509e-015 1.78906e-015 1.59028e-015 9.24349e-015 -0.0126366 0.00313644 0.00283852 1.78906e-015 0 -1.09332e-015 1.78906e-015 1.59028e-015 9.24349e-015 -1.98785e-015 -1.59028e-015 9.49197e-015 9.93923e-016 3.18055e-015 -3.52843e-015 -32.2736 25.3821 -4.3068 -8.42529 35.3667 -18.1307 26.6115 -72.0849 53.1023 29.4255 -25.3851 18.3293 -1.19271e-015 0 3.08116e-015 7.95139e-016 1.59028e-015 6.06293e-015 -1.59028e-015 -1.59028e-015 5.66536e-015 -1.19271e-015 0 3.08116e-015 0.0129451 0.00231696 -9.02116e-005 8.16573e-031 3.18055e-015 -1.47101e-014 -1.19271e-015 0 3.08116e-015 0.0163231 0.00302098 -0.000869456 -2.38542e-015 3.18055e-015 1.5704e-014 -1.19271e-015 0 3.08116e-015 0.0145829 0.00368005 -0.00325933 -7.95139e-016 0 -4.77083e-015 -1.19271e-015 0 3.08116e-015 7.95139e-016 1.59028e-015 6.06293e-015 -1.59028e-015 -1.59028e-015 5.66536e-015 -66.1264 -41.1685 -29.2269 172.903 65.9195 -175.076 -43.86 23.3203 60.4086 3.99487e-007 1.39368e-008 1.45544e-007 30.2208 -12.6191 -26.52 -6.85378 28.2032 0.493083 10.8918 -0.716108 29.3142 1.44644e-006 -1.72707e-006 -6.66209e-006 
40.1645 0.98278 13.9841 -7.1693e-008 -85.6773 -9.07729e-008 -0.0479811 5.42768 -0.117694 -0.085282 10.8555 -0.232373 -0.0852822 10.8555 -0.232374 -3.17981e-007 -15.2926 -5.45081e-007 4.8681e-008 -14.6008 1.28912e-007 10.849 -1.47295 -5.53999 25.1951 30.1898 18.4613 -0.0134669 -43.6645 -30.5985 -29.2352 -21.1417 -19.0195 -7.0072e-007 -3.32537e-006 4.2599e-006 1.19271e-015 1.59028e-014 -2.98177e-015 3.57812e-015 1.11319e-014 -1.93815e-015 -7.0072e-007 -3.32537e-006 4.2599e-006 -0.0128184 0.00231766 8.39236e-005 -1.39149e-015 3.18055e-015 -3.67752e-015 -7.0072e-007 -3.32537e-006 4.2599e-006 -0.0160861 0.00300468 0.000852764 2.98177e-015 0 3.8763e-015 -7.0072e-007 -3.32537e-006 4.2599e-006 -0.0126313 0.00314184 0.0028338 2.4823e-006 -5.78548e-006 -2.70178e-006 -7.0072e-007 -3.32537e-006 4.2599e-006 1.19271e-015 1.59028e-014 -2.98177e-015 3.57812e-015 1.11319e-014 -1.93815e-015 -31.8031 25.2653 -4.45538 -8.7046 35.2853 -18.0142 25.9583 -71.9343 52.4829 29.1134 -25.6373 18.2505 -1.96288e-007 -4.52039e-007 -5.46193e-006 -9.18797e-006 -5.23272e-006 8.16019e-006 1.59028e-015 1.59028e-015 -2.68359e-015 -1.96288e-007 -4.52039e-007 -5.46193e-006 0.0129618 0.00231115 -8.23709e-005 -1.93844e-007 8.38114e-007 -3.69604e-006 -1.96288e-007 -4.52039e-007 -5.46193e-006 0.016328 0.00302331 -0.000872034 -4.04382e-006 4.15276e-006 3.50492e-006 -1.96288e-007 -4.52039e-007 -5.46193e-006 0.0145667 0.00367682 -0.00326938 -2.38561e-006 1.70982e-006 3.90192e-006 -1.96288e-007 -4.52039e-007 -5.46193e-006 -9.18797e-006 -5.23272e-006 8.16019e-006 1.59028e-015 1.59028e-015 -2.68359e-015 -66.5038 -41.3684 -29.8107 172.902 65.9201 -175.075 -43.8598 23.3203 60.4089 -2.33572e-015 0 -3.97569e-016 30.2482 -12.9533 -26.5321 -6.79579 28.0581 0.474507 10.8104 -0.588871 29.5327 -7.23067e-007 1.31015e-006 3.33108e-006 
40.1654 0.922981 13.9596 -2.69322e-008 -85.2117 -5.84873e-008 -0.0478613 5.40116 -0.117763 -0.085085 10.8024 -0.232531 -0.0850852 10.8025 -0.232532 -2.74769e-007 -15.1371 -5.75071e-007 -1.39754e-009 -14.4734 3.59695e-009 10.6359 -1.66082 -5.62921 25.3782 30.1859 18.3972 0.0543345 -43.3347 -30.5553 -28.9789 -21.4856 -18.9595 1.78906e-015 0 1.11816e-014 1.78906e-015 6.36111e-015 1.93815e-015 1.98785e-016 1.59028e-015 -4.02539e-015 1.78906e-015 0 1.11816e-014 -0.0127778 0.00231881 8.35927e-005 3.97569e-016 -3.18055e-015 5.76476e-015 1.78906e-015 0 1.11816e-014 -0.0160041 0.00300395 0.00085578 2.18663e-015 -1.59028e-015 6.5102e-015 1.78906e-015 0 1.11816e-014 -0.0126415 0.0031455 0.00283909 -2.78299e-015 3.18055e-015 -2.18663e-015 1.78906e-015 0 1.11816e-014 1.78906e-015 6.36111e-015 1.93815e-015 1.98785e-016 1.59028e-015 -4.02539e-015 -31.3332 25.1474 -4.6028 -8.98356 35.2035 -17.8982 25.3152 -71.7816 51.8735 28.8001 -25.8891 18.1699 1.65816e-006 -6.1441e-007 3.96534e-007 2.2199e-006 -6.82394e-008 3.70995e-006 -5.61747e-007 -1.01495e-006 -3.31341e-006 1.65816e-006 -6.1441e-007 3.96534e-007 0.0129423 0.0023096 -9.07988e-005 8.65619e-006 1.08924e-005 1.59908e-006 1.65816e-006 -6.1441e-007 3.96534e-007 0.0163393 0.00304039 -0.00087487 1.98476e-007 1.84291e-007 3.69719e-006 1.65816e-006 -6.1441e-007 3.96534e-007 0.0145553 0.0036697 -0.00325572 2.75298e-006 6.18105e-006 -2.51978e-006 1.65816e-006 -6.1441e-007 3.96534e-007 2.2199e-006 -6.82394e-008 3.70995e-006 -5.61747e-007 -1.01495e-006 -3.31341e-006 -66.8866 -41.5643 -30.3992 172.903 65.9212 -175.074 -43.8595 23.3203 60.4091 8.53924e-007 -1.59827e-006 1.4018e-007 30.2755 -13.2877 -26.5441 -6.73809 27.9134 0.456279 10.7286 -0.462065 29.7514 9.79975e-006 -2.03276e-005 2.67254e-006 
